<svg version="1.1" id="Layer_1" xmlns:sketch="http://www.bohemiancoding.com/sketch/ns"
	 xmlns="http://www.w3.org/2000/svg" xmlns:xlink="http://www.w3.org/1999/xlink" x="0px" y="0px" viewBox="-279 371 52 52"
	 style="enable-background:new -279 371 52 52;" xml:space="preserve">
<style type="text/css">
	.st0{display:none;}
	.st1{display:none;opacity:0.8;fill:none;enable-background:new    ;}
	.st2{fill:none;stroke:#D6A385;stroke-width:2;}
	.st3{fill:none;stroke:#D6A385;stroke-width:2;stroke-linejoin:round;}

	.st1{fill:none;stroke:#D6A385;stroke-width:0.35;stroke-linecap:round;
		stroke-dasharray: 1500;
		stroke-dashoffset: 0;
		webkit-animation: dash 3s linear forwards;
		-o-animation: dash 3s linear forwards;
		-moz-animation: dash 3s linear forwards;
		animation: dash 3s linear forwards;
	}
	<!-- .st2{enable-background:new;
		stroke-dasharray: 1500;
		stroke-dashoffset: 0;
		webkit-animation: dash 3s linear forwards;
		-o-animation: dash 3s linear forwards;
		-moz-animation: dash 3s linear forwards;
		animation: dash 3s linear forwards;	
	}	 -->
	.st3{enable-background:new;
		stroke-dasharray: 1500;
		stroke-dashoffset: 0;
		webkit-animation: dash 3s linear forwards;
		-o-animation: dash 3s linear forwards;
		-moz-animation: dash 3s linear forwards;
		animation: dash 3s linear forwards;	
	}
	@-webkit-keyframes dash {		
		from {
			stroke-dashoffset: 2000;
		}
		
		to {
			stroke-dashoffset: 0;
		}
	}
	


</style>
<title>icons/language_select</title>
<desc>Created with Sketch.</desc>
<g id="Page-1" sketch:type="MSPage">
	<g id="Language-Selector" transform="translate(-661.000000, -25.000000)" sketch:type="MSArtboardGroup">
		<g id="PageContent" transform="translate(-8.000000, -48.000000)" sketch:type="MSLayerGroup" class="st0">
			
				<image style="overflow:visible;enable-background:new    ;" width="1245" height="1895" id="Bitmap-Copy" xlink:href="D77F7F47CC2308A0.jpg"  sketch:type="MSBitmapLayer" transform="matrix(0.6145 0 0 0.6142 -279 371.565)">
			</image>
		</g>
		<g id="header" sketch:type="MSLayerGroup">
			<rect id="Rectangle-1" x="-279" y="371.6" sketch:type="MSShapeGroup" class="st1" width="750" height="100">
			</rect>
			<g id="languages-_x2B_-Language-Active" transform="translate(662.000000, 26.000000)" sketch:type="MSShapeGroup">
				<g id="languages" transform="translate(7.000000, 5.000000)">
					<path id="Oval-1" class="st2" d="M-260,409.6c10.5,0,19-8.5,19-19s-8.5-19-19-19c-10.5,0-19,8.5-19,19S-270.5,409.6-260,409.6z
						"/>
					<path id="Oval-1-Copy-3" class="st2" d="M-260,409.6c5.5,0,10-8.5,10-19s-4.5-19-10-19c-5.5,0-10,8.5-10,19
						S-265.5,409.6-260,409.6z"/>
					<path id="Line" class="st2" d="M-278,390.6h36"/>
					<path id="Line-Copy-4" class="st2" d="M-277,382.6h34"/>
					<path id="Line-Copy-2" class="st2" d="M-277,398.6h34"/>
					<path id="Line-Copy" class="st2" d="M-260,372.6v36"/>
				</g>
				<path id="Language-Active" class="st3" d="M-274.1,407.1c-1.9-3.4-2.9-7.4-2.9-11.5c0-13.3,10.7-24,24-24s24,10.7,24,24
					s-10.7,24-24,24c-4.9,0-9.5-1.5-13.3-4l-12.7,6L-274.1,407.1z"/>
			</g>
		</g>
	</g>
</g>
</svg>
