<svg version="1.1" id="Layer_1" xmlns:sketch="http://www.bohemiancoding.com/sketch/ns"
	 xmlns="http://www.w3.org/2000/svg" xmlns:xlink="http://www.w3.org/1999/xlink" x="0px" y="0px" viewBox="-279 371 52 52"
	 style="enable-background:new -279 371 52 52;" xml:space="preserve">
<style type="text/css">
	.st0{display:none;}
	.st1{display:none;opacity:0.8;fill:#FFFFFF;enable-background:new    ;}
	.st2{fill:none;stroke:#D6A385;stroke-width:2;}
	.st3{
		fill:none;stroke:#D6A385;
		stroke-width:2;
		stroke-linejoin:round;
		webkit-animation: dash 3s linear forwards;
		-o-animation: dash 3s linear forwards;
		-moz-animation: dash 3s linear forwards;
		animation: dash 3s linear forwards;	
		stroke-dasharray: 1500;
		stroke-dashoffset: 0;
		stroke-linejoin:round;
		enable-background:new;
		}
	@-webkit-keyframes dash {		
		from {
			stroke-dashoffset: 2000;
		}
		
		to {
			stroke-dashoffset: 0;
		}
	}
</style>
<title>icons/language_select</title>
<desc>Created with Sketch.</desc>
<g id="Page-1" sketch:type="MSPage">
	<g id="Language-Selector" transform="translate(-661.000000, -25.000000)" sketch:type="MSArtboardGroup">
		<g id="PageContent" transform="translate(-8.000000, -48.000000)" sketch:type="MSLayerGroup" class="st0">
			
				<image style="display:inline;overflow:visible;enable-background:new    ;" width="1245" height="1895" id="Bitmap-Copy" xlink:href="ACC05ECE8458F3C0.png"  sketch:type="MSBitmapLayer" transform="matrix(0.6145 0 0 0.6142 -279 371)">
			</image>
		</g>
		<g id="header" sketch:type="MSLayerGroup">
			<rect id="Rectangle-1" x="-279" y="371" sketch:type="MSShapeGroup" class="st1" width="750" height="100">
			</rect>
			<g id="languages-_x2B_-Language-Active" transform="translate(662.000000, 26.000000)" sketch:type="MSShapeGroup">
				<g id="languages" transform="translate(7.000000, 5.000000)">
					<path id="Oval-1" class="st2" d="M-260,409c10.5,0,19-8.5,19-19s-8.5-19-19-19s-19,8.5-19,19S-270.5,409-260,409z"/>
					<path id="Oval-1-Copy-3" class="st2" d="M-260,409c5.5,0,10-8.5,10-19s-4.5-19-10-19c-5.5,0-10,8.5-10,19S-265.5,409-260,409z"
						/>
					<path id="Line" class="st2" d="M-278,390h36"/>
					<path id="Line-Copy-4" class="st2" d="M-277,382h34"/>
					<path id="Line-Copy-2" class="st2" d="M-277,398h34"/>
					<path id="Line-Copy" class="st2" d="M-260,372v36"/>
				</g>
				<path id="Language-Active" class="st3" d="M-274.1,406.5c-1.9-3.4-2.9-7.4-2.9-11.5c0-13.3,10.7-24,24-24c13.3,0,24,10.7,24,24
					s-10.7,24-24,24c-4.9,0-9.5-1.5-13.3-4l-12.7,6L-274.1,406.5z"/>
			</g>
		</g>
	</g>
</g>
</svg>
