<?xml version="1.0" encoding="UTF-8" standalone="no"?>
<svg width="752px" height="432px" viewBox="0 0 752 432" version="1.1" xmlns="http://www.w3.org/2000/svg" xmlns:xlink="http://www.w3.org/1999/xlink" xmlns:sketch="http://www.bohemiancoding.com/sketch/ns">
    <!-- Generator: Sketch 3.3.3 (12081) - http://www.bohemiancoding.com/sketch -->
    <title>the_true_you</title>
    <desc>Created with Sketch.</desc>
    <defs></defs>
    <g id="Page-1" stroke="none" stroke-width="1" fill="none" fill-rule="evenodd" sketch:type="MSPage">
        <g id="The-True-You-Copy" sketch:type="MSLayerGroup" transform="translate(-1.000000, -2.000000)" fill="#FFFFFF">
            <path d="M58.8926417,149.709481 L1.53219251,149.709481 L1.93136898,147.525444 L131.135519,147.525444 L130.542802,149.709481 L72.9888128,149.709481 L38.8451123,286.62963 L24.7529733,286.62963 L58.8926417,149.709481" id="Fill-1" sketch:type="MSShapeGroup"></path>
            <path d="M206.559711,286.62963 L192.46354,286.62963 L227.199957,147.525444 L279.00016,147.525444 C305.797401,147.525444 325.046578,155.87 325.046578,177.532741 C325.046578,210.321556 291.50769,221.249815 272.448021,221.645444 L272.448021,222.045111 C289.915016,223.437889 298.055797,230.987148 299.842011,245.096593 L302.81769,268.349926 C303.612011,274.906074 305.398225,282.059704 309.172257,286.62963 L293.491476,286.62963 C291.108513,281.462222 290.11662,274.708259 289.523904,269.343037 L286.741765,247.082815 C284.955551,230.389667 278.20584,222.638556 256.771273,222.638556 L222.635636,222.638556 L206.559711,286.62963 L206.559711,286.62963 Z M223.228353,220.454519 L260.343701,220.454519 C286.741765,220.454519 310.361722,208.331296 310.361722,175.542481 C310.361722,157.060926 298.648513,149.709481 278.008267,149.709481 L240.695348,149.709481 L223.228353,220.454519 L223.228353,220.454519 Z" id="Fill-2" sketch:type="MSShapeGroup"></path>
            <path d="M551.512695,147.525444 L530.473273,231.382778 C521.739775,267.356815 497.527102,288.615852 464.58093,288.615852 C426.47369,288.615852 408.405914,262.782852 416.550727,230.389667 L437.388545,147.525444 L451.480684,147.525444 L431.235583,228.20563 C423.098834,261.192259 436.19908,284.045926 467.951754,284.045926 C498.914139,284.045926 519.953561,264.171593 528.485455,230.587481 L549.327305,147.525444 L551.512695,147.525444" id="Fill-3" sketch:type="MSShapeGroup"></path>
            <path d="M659.874995,147.525444 L752.76215,147.525444 L752.169433,149.709481 L673.374417,149.709481 L657.492032,214.096185 L716.441123,214.096185 L715.844374,216.280222 L656.899316,216.280222 L639.831497,284.445593 L721.005444,284.445593 L720.412727,286.62963 L625.14261,286.62963 L659.874995,147.525444" id="Fill-4" sketch:type="MSShapeGroup"></path>
            <path d="M201.447027,4.37614815 L144.082545,4.37614815 L144.485754,2.19211111 L273.693936,2.19211111 L273.097187,4.37614815 L215.539166,4.37614815 L181.399497,141.296296 L167.307358,141.296296 L201.447027,4.37614815" id="Fill-5" sketch:type="MSShapeGroup"></path>
            <path d="M369.75031,2.19211111 L383.842449,2.19211111 L367.367348,68.7628519 L460.060963,68.7628519 L476.729604,2.19211111 L490.825775,2.19211111 L456.089358,141.296296 L441.997219,141.296296 L459.460182,70.9468889 L366.774631,70.9468889 L349.110064,141.296296 L335.017925,141.296296 L369.75031,2.19211111" id="Fill-6" sketch:type="MSShapeGroup"></path>
            <path d="M602.163754,2.19211111 L695.050909,2.19211111 L694.45416,4.37614815 L615.659144,4.37614815 L599.780791,68.7628519 L658.729882,68.7628519 L658.137166,70.9468889 L599.188075,70.9468889 L582.116225,139.112259 L663.294203,139.112259 L662.697455,141.296296 L567.431369,141.296296 L602.163754,2.19211111" id="Fill-7" sketch:type="MSShapeGroup"></path>
            <path d="M187.334727,292.858778 L189.919294,292.858778 L118.063497,373.337111 L103.378642,431.962963 L89.0889305,431.962963 L103.777818,373.538963 L71.6259679,292.858778 L86.1092193,292.858778 L116.874032,371.548704 L187.334727,292.858778" id="Fill-8" sketch:type="MSShapeGroup"></path>
            <path d="M390.176856,348.896889 C390.176856,391.822704 354.053401,433.949185 308.006984,433.949185 C279.229989,433.949185 252.235176,413.481407 252.235176,375.920815 C252.235176,332.797185 288.556203,290.872556 334.60262,290.872556 C363.383647,290.872556 390.176856,311.138481 390.176856,348.896889 L390.176856,348.896889 Z M277.246203,334.985259 C270.294888,350.483444 266.327316,368.371556 266.327316,385.658148 C266.327316,419.440074 285.778096,431.962963 308.006984,431.962963 C333.606695,431.962963 353.658257,414.474519 365.367433,389.832444 C372.314717,374.334259 376.282289,356.450185 376.282289,339.159556 C376.282289,305.37763 356.633936,292.858778 334.60262,292.858778 C308.801305,292.858778 288.753775,310.343185 277.246203,334.985259 L277.246203,334.985259 Z" id="Fill-9" sketch:type="MSShapeGroup"></path>
            <path d="M618.159037,292.858778 L597.119615,376.716111 C588.386118,412.690148 564.173444,433.949185 531.227273,433.949185 C493.120032,433.949185 475.052257,408.116185 483.19707,375.723 L504.034888,292.858778 L518.127027,292.858778 L497.885957,373.538963 C489.745176,406.525593 502.845422,429.379259 534.598096,429.379259 C565.564513,429.379259 586.599904,409.508963 595.135829,375.920815 L615.977679,292.858778 L618.159037,292.858778" id="Fill-10" sketch:type="MSShapeGroup"></path>
        </g>
    </g>
</svg>