<?xml version="1.0" encoding="UTF-8" standalone="no"?>
<svg width="782px" height="429px" viewBox="0 0 782 429" version="1.1" xmlns="http://www.w3.org/2000/svg" xmlns:xlink="http://www.w3.org/1999/xlink" xmlns:sketch="http://www.bohemiancoding.com/sketch/ns">
    <!-- Generator: Sketch 3.4 (15588) - http://www.bohemiancoding.com/sketch -->
    <title>absolutely_you</title>
    <desc>Created with Sketch.</desc>
    <defs>
        <path id="path-1" d="M0,1.61449074 L781.33142,1.61449074 L781.33142,430 L0,430"></path>
        <path id="path-3" d="M0,1.61449074 L781.33142,1.61449074 L781.33142,430 L0,430 L0,1.61449074 Z"></path>
        <path id="path-5" d="M0,1.61449074 L781.33142,1.61449074 L781.33142,430 L0,430 L0,1.61449074 Z"></path>
    </defs>
    <g id="Page-1" stroke="none" stroke-width="1" fill="none" fill-rule="evenodd" sketch:type="MSPage">
        <g id="page-1" sketch:type="MSArtboardGroup" transform="translate(-157.000000, -1236.000000)">
            <g id="absolutely_you" sketch:type="MSLayerGroup" transform="translate(157.000000, 1235.000000)">
                <path d="M114.551061,1.61429167 L17.8118906,142.717995 L20.3926896,142.717995 L53.9649644,93.8273935 L119.716639,93.8273935 L129.050893,142.717995 L142.957758,142.717995 L115.345,1.61429167 L114.551061,1.61429167 Z M105.212827,19.1049398 L119.119692,91.6415602 L55.5528422,91.6415602 L105.212827,19.1049398 Z" id="Fill-1" fill="#FEFEFE" sketch:type="MSShapeGroup"></path>
                <g id="Group-31">
                    <path d="M196.584652,69.979713 L226.380245,69.979713 C250.815258,69.979713 274.056377,59.6457778 274.056377,28.4429074 C274.056377,12.7439259 263.727212,5.78827778 242.670917,5.78827778 L212.674352,5.78827778 L196.584652,69.979713 Z M196.188677,72.1655463 L179.104067,140.529574 L214.463202,140.529574 C243.464855,140.529574 262.734291,126.22013 262.734291,97.4041574 C262.734291,79.1211944 249.623354,72.1655463 226.380245,72.1655463 L196.188677,72.1655463 Z M164.405252,142.715407 L199.167441,3.6004537 L245.054723,3.6004537 C270.480667,3.6004537 287.961252,12.5448519 287.961252,31.6241111 C287.961252,55.6702685 264.322168,69.7806389 241.479013,70.7740185 L241.479013,71.1701759 C259.753537,71.9664722 277.03514,81.7051759 277.03514,99.7890648 C277.03514,127.810731 248.232469,142.715407 216.053069,142.715407 L164.405252,142.715407 Z" id="Fill-2" fill="#FEFEFE" sketch:type="MSShapeGroup"></path>
                    <path d="M385.690956,105.950407 C385.690956,93.4306389 377.94259,86.2759167 361.655898,80.1145741 L342.18748,72.7627685 C327.289684,67.1966574 314.37773,59.0485556 314.37773,41.9580463 C314.37773,18.3080463 335.235043,1.61568519 361.85289,1.61568519 C388.868702,1.61568519 404.759419,14.7306852 408.932076,33.2127222 L406.946234,34.0090185 C402.972559,15.9231389 387.676798,3.60244444 361.85289,3.60244444 C340.002656,3.60244444 324.507913,16.5203611 324.507913,33.8099444 C324.507913,49.3118426 336.028982,55.2741111 348.743944,60.2410093 L369.203292,68.1920278 C385.889938,74.5504537 396.219104,82.3004074 396.219104,98.5966111 C396.219104,127.016426 371.189134,144.704157 343.578366,144.704157 C316.562554,144.704157 294.911302,130.991935 289.944707,109.726843 L291.930549,108.534389 C296.897145,130.195639 317.95344,142.715407 343.578366,142.715407 C367.21745,142.715407 385.690956,129.003185 385.690956,105.950407" id="Fill-4" fill="#FEFEFE" sketch:type="MSShapeGroup"></path>
                    <g id="Group-8">
                        <mask id="mask-2" sketch:name="Clip 7" fill="white">
                            <use xlink:href="#path-1"></use>
                        </mask>
                        <g id="Clip-7"></g>
                        <path d="M443.096522,45.733088 C436.144084,61.2349861 432.17041,79.1217917 432.17041,96.411375 C432.17041,130.196236 451.636837,142.716005 473.887025,142.716005 C499.511952,142.716005 519.573336,125.227347 531.293387,100.583968 C538.245824,85.0840602 542.219499,67.1972546 542.219499,49.9056806 C542.219499,16.1208194 522.554089,3.60105093 500.504873,3.60105093 C474.680964,3.60105093 454.61759,21.0897083 443.096522,45.733088 M556.124374,59.6443843 C556.124374,102.570727 519.9713,144.702764 473.887025,144.702764 C445.082364,144.702764 418.066552,124.233968 418.066552,86.6726713 C418.066552,43.5472546 454.418608,1.61429167 500.504873,1.61429167 C529.307545,1.61429167 556.124374,21.8860046 556.124374,59.6443843" id="Fill-6" fill="#FEFEFE" sketch:type="MSShapeGroup" mask="url(#mask-2)"></path>
                    </g>
                    <path d="M570.618237,86.4745926 L620.081229,86.4745926 L619.484282,89.0585741 L570.02129,89.0585741 L570.618237,86.4745926 Z" id="Fill-9" fill="#FEFEFE" sketch:type="MSShapeGroup"></path>
                    <path d="M78.747798,146.249769 L92.8516555,146.249769 L58.6844239,283.178889 L135.559203,283.178889 L134.964246,285.364722 L43.9856097,285.364722 L78.747798,146.249769 Z" id="Fill-11" fill="#FEFEFE" sketch:type="MSShapeGroup"></path>
                    <path d="M293.478233,146.249769 L272.421937,230.115694 C263.68065,266.086389 239.448599,287.351481 206.473271,287.351481 C168.334355,287.351481 150.256823,261.515648 158.401164,229.122315 L179.258477,146.249769 L193.362334,146.249769 L173.101968,226.936481 C164.955637,259.927037 178.066574,282.780741 209.849998,282.780741 C240.839484,282.780741 261.89379,262.907176 270.436095,229.321389 L291.293408,146.249769 L293.478233,146.249769 Z" id="Fill-13" fill="#FEFEFE" sketch:type="MSShapeGroup"></path>
                    <path d="M368.95735,148.436398 L311.548999,148.436398 L311.946963,146.250565 L441.263498,146.250565 L440.666551,148.436398 L383.061208,148.436398 L348.893976,285.365519 L334.790119,285.365519 L368.95735,148.436398 Z" id="Fill-15" fill="#FEFEFE" sketch:type="MSShapeGroup"></path>
                    <path d="M462.911367,146.249769 L555.875845,146.249769 L555.280889,148.435602 L476.420268,148.435602 L460.52756,212.826111 L519.523789,212.826111 L518.928833,215.011944 L459.932604,215.011944 L442.847993,283.178889 L524.09441,283.178889 L523.497464,285.364722 L428.149179,285.364722 L462.911367,146.249769 Z" id="Fill-17" fill="#FEFEFE" sketch:type="MSShapeGroup"></path>
                    <path d="M583.087654,146.249769 L597.191512,146.249769 L563.02428,283.178889 L639.899059,283.178889 L639.304102,285.364722 L548.325466,285.364722 L583.087654,146.249769 Z" id="Fill-19" fill="#FEFEFE" sketch:type="MSShapeGroup"></path>
                    <g id="Group-23">
                        <mask id="mask-4" sketch:name="Clip 22" fill="white">
                            <use xlink:href="#path-3"></use>
                        </mask>
                        <g id="Clip-22"></g>
                        <path d="M778.74883,146.249769 L781.331619,146.249769 L709.421446,226.737407 L694.722632,285.364722 L680.421782,285.364722 L695.120596,226.936481 L662.939207,146.249769 L677.441028,146.249769 L708.229542,224.949722 L778.74883,146.249769 Z" id="Fill-21" fill="#FEFEFE" sketch:type="MSShapeGroup" mask="url(#mask-4)"></path>
                    </g>
                    <g id="Group-26">
                        <mask id="mask-6" sketch:name="Clip 25" fill="white">
                            <use xlink:href="#path-5"></use>
                        </mask>
                        <g id="Clip-25"></g>
                        <path d="M115.809026,288.898287 L118.391815,288.898287 L46.4816422,369.385926 L31.782828,428.013241 L17.4799883,428.013241 L32.1807924,369.585 L-0.000596946565,288.898287 L14.5012249,288.898287 L45.2917288,367.598241 L115.809026,288.898287 Z" id="Fill-24" fill="#FEFEFE" sketch:type="MSShapeGroup" mask="url(#mask-6)"></path>
                    </g>
                    <path d="M131.302178,331.029926 C124.34974,346.531824 120.376066,364.41863 120.376066,381.708213 C120.376066,415.493074 139.842493,428.012843 162.090692,428.012843 C187.717608,428.012843 207.778992,410.524185 219.499043,385.880806 C226.45148,370.380898 230.425155,352.494093 230.425155,335.202519 C230.425155,301.417657 210.759745,288.897889 188.710529,288.897889 C162.88662,288.897889 142.823246,306.386546 131.302178,331.029926 M244.33003,344.941222 C244.33003,387.867565 208.176956,429.999602 162.090692,429.999602 C133.28802,429.999602 106.272208,409.530806 106.272208,371.969509 C106.272208,328.844093 142.624264,286.91113 188.710529,286.91113 C217.513201,286.91113 244.33003,307.182843 244.33003,344.941222" id="Fill-27" fill="#FEFEFE" sketch:type="MSShapeGroup"></path>
                    <path d="M397.676648,288.898287 L376.620353,372.764213 C367.879066,408.734907 343.647015,430 310.671687,430 C272.530781,430 254.455239,404.164167 262.59958,371.770833 L283.456893,288.898287 L297.56075,288.898287 L277.300384,369.585 C269.154053,402.575556 282.264989,425.429259 314.048414,425.429259 C345.03591,425.429259 366.092206,405.555694 374.634511,371.969907 L395.491824,288.898287 L397.676648,288.898287 Z" id="Fill-29" fill="#FEFEFE" sketch:type="MSShapeGroup"></path>
                </g>
            </g>
        </g>
    </g>
</svg>