<?xml version="1.0" encoding="UTF-8" standalone="no"?>
<svg width="590px" height="429px" viewBox="0 0 590 429" version="1.1" xmlns="http://www.w3.org/2000/svg" xmlns:xlink="http://www.w3.org/1999/xlink" xmlns:sketch="http://www.bohemiancoding.com/sketch/ns">
    <!-- Generator: Sketch 3.4 (15588) - http://www.bohemiancoding.com/sketch -->
    <title>bold_you</title>
    <desc>Created with Sketch.</desc>
    <defs>
        <path id="path-1" d="M0,1.618 L589.98,1.618 L589.98,430 L0,430 L0,1.618 Z"></path>
        <path id="path-3" d="M0,1.618 L589.98,1.618 L589.98,430 L0,430 L0,1.618 Z"></path>
    </defs>
    <g id="Page-1" stroke="none" stroke-width="1" fill="none" fill-rule="evenodd" sketch:type="MSPage">
        <g id="page-1" sketch:type="MSArtboardGroup" transform="translate(-253.000000, -667.000000)">
            <g id="bold_you" sketch:type="MSLayerGroup" transform="translate(253.000000, 666.000000)">
                <path d="M38.7324,1.618 L38.3324,3.814 L96.0364,3.814 L61.6924,141.378 L75.8684,141.378 L110.2104,3.814 L168.1104,3.814 L168.7104,1.618 L38.7324,1.618 Z" id="Fill-1" fill="#FEFEFE" sketch:type="MSShapeGroup"></path>
                <path d="M298.0854,1.618 L281.3154,68.504 L188.0734,68.504 L204.6454,1.618 L190.4694,1.618 L155.5294,141.378 L169.7054,141.378 L187.4734,70.7 L280.7154,70.7 L263.1454,141.378 L277.3214,141.378 L312.2614,1.618 L298.0854,1.618 Z" id="Fill-2" fill="#FEFEFE" sketch:type="MSShapeGroup"></path>
                <path d="M349.3926,1.618 L314.4526,141.378 L410.2886,141.378 L410.8886,139.184 L329.2266,139.184 L346.3966,70.7 L405.6966,70.7 L406.2966,68.504 L346.9966,68.504 L362.9706,3.814 L442.2346,3.814 L442.8346,1.618 L349.3926,1.618 Z" id="Fill-3" fill="#FEFEFE" sketch:type="MSShapeGroup"></path>
                <g id="Group-20">
                    <path d="M82.8556,211.6162 L112.8056,211.6162 C137.3636,211.6162 160.7236,201.2342 160.7236,169.8882 C160.7236,154.1142 150.3416,147.1262 129.1776,147.1262 L99.0276,147.1262 L82.8556,211.6162 Z M82.4576,213.8122 L65.2856,282.4942 L100.8256,282.4942 C129.9756,282.4942 149.3436,268.1202 149.3436,239.1682 C149.3436,220.8002 136.1656,213.8122 112.8056,213.8122 L82.4576,213.8122 Z M50.5116,284.6922 L85.4516,144.9302 L131.5736,144.9302 C157.1296,144.9302 174.6996,153.9142 174.6996,173.0822 C174.6996,197.2402 150.9396,211.4162 127.9796,212.4142 L127.9796,212.8142 C146.3476,213.6122 163.7176,223.3962 163.7176,241.5642 C163.7176,269.7162 134.7676,284.6922 102.4236,284.6922 L50.5116,284.6922 Z" id="Fill-4" fill="#FEFEFE" sketch:type="MSShapeGroup"></path>
                    <path d="M210.8374,187.2576 C203.8494,202.8316 199.8554,220.7996 199.8554,238.1716 C199.8554,272.1136 219.4214,284.6916 241.7834,284.6916 C267.5414,284.6916 287.7054,267.1216 299.4854,242.3636 C306.4734,226.7896 310.4674,208.8216 310.4674,191.4496 C310.4674,157.5076 290.7014,144.9296 268.5394,144.9296 C242.5834,144.9296 222.4174,162.4996 210.8374,187.2576 M324.4434,201.2336 C324.4434,244.3596 288.1054,286.6876 241.7834,286.6876 C212.8334,286.6876 185.6794,266.1236 185.6794,228.3876 C185.6794,185.0616 222.2174,142.9336 268.5394,142.9336 C297.4894,142.9336 324.4434,163.2996 324.4434,201.2336" id="Fill-6" fill="#FEFEFE" sketch:type="MSShapeGroup"></path>
                    <path d="M366.7654,144.93 L380.9414,144.93 L346.5994,282.496 L423.8674,282.496 L423.2694,284.692 L331.8254,284.692 L366.7654,144.93 Z" id="Fill-8" fill="#FEFEFE" sketch:type="MSShapeGroup"></path>
                    <g id="Group-12">
                        <mask id="mask-2" sketch:name="Clip 11" fill="white">
                            <use xlink:href="#path-1"></use>
                        </mask>
                        <g id="Clip-11"></g>
                        <path d="M575.4054,193.6468 C575.4054,162.8988 558.2354,147.1268 521.4974,147.1268 L497.1394,147.1268 L463.3974,282.4948 L491.9474,282.4948 C548.8514,282.4948 575.4054,238.9688 575.4054,193.6468 L575.4054,193.6468 Z M448.6214,284.6908 L483.5634,144.9308 L522.6954,144.9308 C566.2214,144.9308 589.9814,165.4948 589.9814,197.4408 C589.9814,246.7568 549.4494,284.6908 492.5474,284.6908 L448.6214,284.6908 Z" id="Fill-10" fill="#FEFEFE" sketch:type="MSShapeGroup" mask="url(#mask-2)"></path>
                    </g>
                    <g id="Group-15">
                        <mask id="mask-4" sketch:name="Clip 14" fill="white">
                            <use xlink:href="#path-3"></use>
                        </mask>
                        <g id="Clip-14"></g>
                        <path d="M116.4014,288.242 L118.9974,288.242 L46.7194,369.104 L31.9454,428.004 L17.5694,428.004 L32.3454,369.304 L-0.0006,288.242 L14.5754,288.242 L45.5234,367.308 L116.4014,288.242 Z" id="Fill-13" fill="#FEFEFE" sketch:type="MSShapeGroup" mask="url(#mask-4)"></path>
                    </g>
                    <path d="M131.9738,330.5696 C124.9858,346.1436 120.9918,364.1116 120.9918,381.4836 C120.9918,415.4256 140.5578,428.0036 162.9198,428.0036 C188.6778,428.0036 208.8418,410.4336 220.6218,385.6756 C227.6098,370.1016 231.6038,352.1336 231.6038,334.7616 C231.6038,300.8196 211.8378,288.2416 189.6758,288.2416 C163.7198,288.2416 143.5538,305.8116 131.9738,330.5696 M245.5798,344.5456 C245.5798,387.6716 209.2418,429.9996 162.9198,429.9996 C133.9698,429.9996 106.8158,409.4356 106.8158,371.6996 C106.8158,328.3736 143.3538,286.2456 189.6758,286.2456 C218.6258,286.2456 245.5798,306.6116 245.5798,344.5456" id="Fill-16" fill="#FEFEFE" sketch:type="MSShapeGroup"></path>
                    <path d="M399.7108,288.242 L378.5468,372.498 C369.7608,408.636 345.4048,430 312.2608,430 C273.9248,430 255.7568,404.044 263.9428,371.5 L284.9068,288.242 L299.0828,288.242 L278.7188,369.304 C270.5308,402.448 283.7088,425.408 315.6548,425.408 C346.8008,425.408 367.9648,405.442 376.5508,371.7 L397.5148,288.242 L399.7108,288.242 Z" id="Fill-18" fill="#FEFEFE" sketch:type="MSShapeGroup"></path>
                </g>
            </g>
        </g>
    </g>
</svg>