<?xml version="1.0" encoding="UTF-8" standalone="no"?>
<svg width="513px" height="358px" viewBox="0 0 513 358" version="1.1" xmlns="http://www.w3.org/2000/svg" xmlns:xlink="http://www.w3.org/1999/xlink" xmlns:sketch="http://www.bohemiancoding.com/sketch/ns">
    <!-- Generator: Sketch 3.3.3 (12081) - http://www.bohemiancoding.com/sketch -->
    <title>Type</title>
    <desc>Created with Sketch.</desc>
    <defs></defs>
    <g id="Page-1" stroke="none" stroke-width="1" fill="none" fill-rule="evenodd" sketch:type="MSPage">
        <g id="difference_landscape" sketch:type="MSArtboardGroup" transform="translate(-411.000000, -118.000000)" fill="#FFFFFF">
            <g id="Type" sketch:type="MSLayerGroup" transform="translate(411.000000, 118.000000)">
                <path d="M103.464411,2.05285846 L69.5270212,2.05285846 L69.7594976,0.76047186 L146.215143,0.76047186 L145.862277,2.05285846 L111.804498,2.05285846 L91.6039677,83.049345 L83.2680315,83.049345 L103.464411,2.05285846" id="Fill-1" sketch:type="MSShapeGroup"></path>
                <path d="M182.481447,0.76047186 L190.821534,0.76047186 L181.074135,40.1429408 L235.921938,40.1429408 L245.785576,0.76047186 L254.121512,0.76047186 L233.572267,83.049345 L225.232179,83.049345 L235.569072,41.4353274 L180.721269,41.4353274 L170.272289,83.049345 L161.932202,83.049345 L182.481447,0.76047186" id="Fill-2" sketch:type="MSShapeGroup"></path>
                <path d="M299.433635,0.76047186 L354.397676,0.76047186 L354.04481,2.05285846 L307.420856,2.05285846 L298.026323,40.1429408 L332.90192,40.1429408 L332.549054,41.4353274 L297.673457,41.4353274 L287.56904,81.7569584 L335.604457,81.7569584 L335.251592,83.049345 L278.880238,83.049345 L299.433635,0.76047186" id="Fill-3" sketch:type="MSShapeGroup"></path>
                <path d="M59.9041627,91.938139 L68.2442502,91.938139 L53.6812701,149.779712 C49.8080488,165.417174 37.7068267,175.407198 21.6202966,175.407198 C8.46877976,175.407198 0.834423888,167.062785 0.834423888,157.305474 C0.834423888,148.017744 6.35158482,141.198431 12.4582392,138.260433 L12.8111051,139.083239 C6.93692695,142.253949 2.00510815,148.250457 2.00510815,157.305474 C2.00510815,166.356336 9.05412189,173.998455 20.9145649,173.998455 C34.7718133,173.998455 41.3475717,165.649887 44.9883168,151.541679 L59.9041627,91.938139" id="Fill-4" sketch:type="MSShapeGroup"></path>
                <path d="M175.806056,125.091388 C175.806056,150.486161 154.43069,175.407198 127.185297,175.407198 C110.156407,175.407198 94.1819639,163.297826 94.1819639,141.082075 C94.1819639,115.570945 115.673568,90.7621088 142.918961,90.7621088 C159.947851,90.7621088 175.806056,102.755124 175.806056,125.091388 L175.806056,125.091388 Z M108.981572,116.863331 C104.871723,126.034705 102.522051,136.610666 102.522051,146.841714 C102.522051,166.825917 114.029629,174.231168 127.185297,174.231168 C142.333619,174.231168 154.194062,163.887919 161.122686,149.310131 C165.236687,140.138757 167.582206,129.55864 167.582206,119.331748 C167.582206,99.3475452 155.958391,91.938139 142.918961,91.938139 C127.654401,91.938139 115.793958,102.285543 108.981572,116.863331 L108.981572,116.863331 Z" id="Fill-5" sketch:type="MSShapeGroup"></path>
                <path d="M289.935317,91.938139 L277.489532,141.5475 C272.321085,162.828245 257.990582,175.407198 238.495783,175.407198 C215.949732,175.407198 205.259974,160.12296 210.079706,140.961563 L222.409253,91.938139 L230.74934,91.938139 L218.768508,139.669176 C213.952927,159.183798 221.703521,172.706068 240.492588,172.706068 C258.816703,172.706068 271.262488,160.945766 276.314696,141.082075 L288.644243,91.938139 L289.935317,91.938139" id="Fill-6" sketch:type="MSShapeGroup"></path>
                <path d="M335.832782,175.407198 L319.630014,91.938139 L327.849712,91.938139 L341.823199,165.180306 L392.087897,91.938139 L393.615599,91.938139 L336.306038,175.407198 L335.832782,175.407198" id="Fill-7" sketch:type="MSShapeGroup"></path>
                <path d="M427.424296,91.938139 L482.384186,91.938139 L482.03132,93.2346812 L435.407366,93.2346812 L426.012833,131.324764 L460.892581,131.324764 L460.539716,132.61715 L425.659967,132.61715 L415.559702,172.938781 L463.590967,172.938781 L463.242253,174.231168 L406.8709,174.231168 L427.424296,91.938139 L427.424296,91.938139 Z M477.452367,66.4270092 L455.728286,85.825275 L455.259182,85.825275 L468.996041,66.4270092 L477.452367,66.4270092 L477.452367,66.4270092 Z" id="Fill-8" sketch:type="MSShapeGroup"></path>
                <path d="M4.00191357,265.41299 L24.5553099,183.119962 L47.5746157,183.119962 C73.176069,183.119962 87.153707,195.229333 87.153707,214.037506 C87.153707,243.076727 63.30828,265.41299 29.8399945,265.41299 L4.00191357,265.41299 L4.00191357,265.41299 Z M78.5769918,211.805958 C78.5769918,193.700078 68.4808779,184.412348 46.868884,184.412348 L32.5425316,184.412348 L12.6948669,264.120604 L29.4871287,264.120604 C62.9595656,264.120604 78.5769918,238.493118 78.5769918,211.805958 L78.5769918,211.805958 Z" id="Fill-9" sketch:type="MSShapeGroup"></path>
                <path d="M122.950907,265.41299 L114.610819,265.41299 L135.164216,183.119962 L143.504303,183.119962 L122.950907,265.41299" id="Fill-10" sketch:type="MSShapeGroup"></path>
                <path d="M188.235236,183.119962 L240.965844,183.119962 L240.617129,184.412348 L196.222457,184.412348 L186.475058,223.678461 L221.475196,223.678461 L221.12233,224.975003 L186.126343,224.975003 L176.021927,265.41299 L167.685991,265.41299 L188.235236,183.119962" id="Fill-11" sketch:type="MSShapeGroup"></path>
                <path d="M275.011168,183.119962 L327.741777,183.119962 L327.388911,184.412348 L282.994239,184.412348 L273.246839,223.678461 L308.246978,223.678461 L307.894112,224.975003 L272.898125,224.975003 L262.79786,265.41299 L254.457772,265.41299 L275.011168,183.119962" id="Fill-12" sketch:type="MSShapeGroup"></path>
                <path d="M362.488682,183.119962 L417.452723,183.119962 L417.099857,184.412348 L370.475903,184.412348 L361.08137,222.506586 L395.956967,222.506586 L395.604101,223.798973 L360.728504,223.798973 L350.624087,264.120604 L398.659504,264.120604 L398.306638,265.41299 L341.935285,265.41299 L362.488682,183.119962" id="Fill-13" sketch:type="MSShapeGroup"></path>
                <path d="M442.452229,265.41299 L434.112141,265.41299 L454.665537,183.119962 L485.315048,183.119962 C501.169102,183.119962 512.560441,188.056795 512.560441,200.872616 C512.560441,220.270882 492.712776,226.736971 481.437675,226.969683 L481.437675,227.206552 C491.774568,228.029357 496.590149,232.49661 497.648746,240.841023 L499.408924,254.600161 C499.878028,258.477321 500.932474,262.707705 503.170058,265.41299 L493.887612,265.41299 C492.476148,262.358636 491.894957,258.360964 491.542092,255.186098 L489.894001,242.017053 C488.835403,232.143385 484.845944,227.559776 472.163531,227.559776 L451.963,227.559776 L442.452229,265.41299 L442.452229,265.41299 Z M452.315866,226.26739 L474.276574,226.26739 C489.894001,226.26739 503.867487,219.094852 503.867487,199.696586 C503.867487,188.763245 496.943014,184.412348 484.729706,184.412348 L462.648608,184.412348 L452.315866,226.26739 L452.315866,226.26739 Z" id="Fill-14" sketch:type="MSShapeGroup"></path>
                <path d="M69.5270212,274.301784 L124.491062,274.301784 L124.138197,275.594171 L77.5142429,275.594171 L68.1197093,313.684253 L102.999458,313.684253 L102.646592,314.97664 L67.7668435,314.97664 L57.6665782,355.302427 L105.697844,355.302427 L105.344978,356.594813 L48.9736249,356.594813 L69.5270212,274.301784" id="Fill-15" sketch:type="MSShapeGroup"></path>
                <path d="M229.229941,274.301784 L230.641405,274.301784 L209.851381,357.770843 L209.382277,357.770843 L162.874561,284.41232 L144.907464,356.594813 L143.496001,356.594813 L164.286025,273.125754 L164.755129,273.125754 L211.379082,346.247409 L229.229941,274.301784" id="Fill-16" sketch:type="MSShapeGroup"></path>
                <path d="M332.910223,295.578374 L331.619149,295.931599 C331.266283,282.413484 321.402646,274.538653 307.661636,274.538653 C284.173226,274.538653 267.028098,299.692402 267.028098,327.908817 C267.028098,348.478958 279.004779,356.357945 292.276686,356.357945 C305.079488,356.357945 317.056169,350.012368 324.453897,336.494254 L325.512495,337.076035 C317.645663,351.541623 304.489994,357.770843 291.454716,357.770843 C274.189199,357.770843 258.571772,345.777828 258.571772,323.557921 C258.571772,296.874916 281.001585,273.125754 306.839666,273.125754 C321.518884,273.125754 332.204491,281.237454 332.910223,295.578374" id="Fill-17" sketch:type="MSShapeGroup"></path>
                <path d="M378.928078,274.301784 L433.892119,274.301784 L433.539253,275.594171 L386.915299,275.594171 L377.520766,313.684253 L412.400515,313.684253 L412.047649,314.97664 L377.1679,314.97664 L367.067635,355.302427 L415.103052,355.302427 L414.750186,356.594813 L358.378833,356.594813 L378.928078,274.301784" id="Fill-18" sketch:type="MSShapeGroup"></path>
            </g>
        </g>
    </g>
</svg>