<?xml version="1.0" encoding="UTF-8" standalone="no"?>
<svg width="732px" height="180px" viewBox="0 0 732 180" version="1.1" xmlns="http://www.w3.org/2000/svg" xmlns:xlink="http://www.w3.org/1999/xlink" xmlns:sketch="http://www.bohemiancoding.com/sketch/ns">
    <!-- Generator: Sketch 3.3.3 (12081) - http://www.bohemiancoding.com/sketch -->
    <title>JOIN</title>
    <desc>Created with Sketch.</desc>
    <defs></defs>
    <g id="Page-1" stroke="none" stroke-width="1" fill="none" fill-rule="evenodd" sketch:type="MSPage">
        <g id="join_landscape" sketch:type="MSArtboardGroup" transform="translate(-301.000000, -324.000000)" fill="#FFFFFF">
            <g id="JOIN" sketch:type="MSLayerGroup" transform="translate(301.594086, 324.000000)">
                <path d="M125.676064,2.65857217 L143.399447,2.65857217 L112.451897,125.430037 C104.220978,158.623673 78.5136909,179.829493 44.3196474,179.829493 C16.3715747,179.829493 0.14793017,162.116811 0.14793017,141.404971 C0.14793017,121.689909 11.8723584,107.223376 24.8495096,100.978068 L25.590557,102.724638 C13.1162594,109.455104 2.6357321,122.192709 2.6357321,141.404971 C2.6357321,160.617232 17.6066536,176.839155 42.8199086,176.839155 C72.2765421,176.839155 86.2417565,159.117652 93.9874661,129.178986 L125.676064,2.65857217" id="Fill-1" sketch:type="MSShapeGroup"></path>
                <path d="M371.968455,73.0329613 C371.968455,126.929617 326.552836,179.829493 268.645277,179.829493 C232.466285,179.829493 198.519257,154.133755 198.519257,106.967566 C198.519257,52.8150997 244.190713,0.16221317 302.089451,0.16221317 C338.277265,0.16221317 371.968455,25.6197824 371.968455,73.0329613 L371.968455,73.0329613 Z M229.969661,55.5584483 C221.227066,75.0265201 216.24264,97.4849301 216.24264,119.19355 C216.24264,161.622832 240.697204,177.341955 268.645277,177.341955 C300.84555,177.341955 326.049983,155.377524 340.773889,124.433258 C349.507661,104.974007 354.500909,82.5155971 354.500909,60.7981559 C354.500909,18.3776949 329.79933,2.65857217 302.089451,2.65857217 C269.650984,2.65857217 244.437729,24.6141819 229.969661,55.5584483 L229.969661,55.5584483 Z" id="Fill-2" sketch:type="MSShapeGroup"></path>
                <path d="M448.799189,177.341955 L431.075805,177.341955 L474.753491,2.65857217 L492.468052,2.65857217 L448.799189,177.341955" id="Fill-3" sketch:type="MSShapeGroup"></path>
                <path d="M727.547691,2.65857217 L730.547168,2.65857217 L686.366629,179.829493 L685.369744,179.829493 L586.545782,24.1202028 L548.346554,177.341955 L545.355898,177.341955 L589.527616,0.16221317 L590.533323,0.16221317 L689.613122,155.377524 L727.547691,2.65857217" id="Fill-4" sketch:type="MSShapeGroup"></path>
            </g>
        </g>
    </g>
</svg>