<?xml version="1.0" encoding="UTF-8" standalone="no"?>
<svg width="731px" height="569px" viewBox="0 0 731 569" version="1.1" xmlns="http://www.w3.org/2000/svg" xmlns:xlink="http://www.w3.org/1999/xlink" xmlns:sketch="http://www.bohemiancoding.com/sketch/ns">
    <!-- Generator: Sketch 3.4 (15588) - http://www.bohemiancoding.com/sketch -->
    <title>jouve_diff</title>
    <desc>Created with Sketch.</desc>
    <defs>
        <path id="path-1" d="M0,0.304395105 L730.555891,0.304395105 L730.555891,569 L0,569"></path>
    </defs>
    <g id="Page-1" stroke="none" stroke-width="1" fill="none" fill-rule="evenodd" sketch:type="MSPage">
        <g id="page-1" sketch:type="MSArtboardGroup" transform="translate(-157.000000, -1804.000000)">
            <g id="jouve_diff" sketch:type="MSLayerGroup" transform="translate(157.000000, 1804.000000)">
                <path d="M27.42255,0.303997203 L27.0247239,2.49046923 L84.4151152,2.49046923 L50.2577674,139.33298 L64.3567239,139.33298 L98.5120826,2.49046923 L156.097409,2.49046923 L156.694148,0.303997203 L27.42255,0.303997203 Z" id="Fill-1" fill="#FEFEFE" sketch:type="MSShapeGroup"></path>
                <path d="M285.366023,0.303997203 L268.687164,66.8391965 L175.951914,66.8391965 L192.433849,0.303997203 L178.334892,0.303997203 L143.584784,139.33298 L157.681751,139.33298 L175.355175,69.0256685 L268.090425,69.0256685 L250.613925,139.33298 L264.714871,139.33298 L299.464979,0.303997203 L285.366023,0.303997203 Z" id="Fill-2" fill="#FEFEFE" sketch:type="MSShapeGroup"></path>
                <path d="M336.394379,0.303997203 L301.644271,139.33298 L396.959423,139.33298 L397.556162,137.148497 L316.337977,137.148497 L333.414662,69.0256685 L392.39039,69.0256685 L392.987129,66.8391965 L334.011401,66.8391965 L349.898586,2.49046923 L428.731803,2.49046923 L429.326553,0.303997203 L336.394379,0.303997203 Z" id="Fill-3" fill="#FEFEFE" sketch:type="MSShapeGroup"></path>
                <g id="Group-37">
                    <path d="M163.04743,142.864958 L177.146387,142.864958 L152.522941,240.581755 C145.970746,266.996486 125.516517,283.879472 98.3131696,283.879472 C76.0727022,283.879472 63.1652348,269.777821 63.1652348,253.292737 C63.1652348,237.603458 72.4982348,226.084192 82.8238109,221.118374 L83.42055,222.509042 C73.4908109,227.870772 65.150387,238.00136 65.150387,253.292737 C65.150387,268.586105 77.0652783,281.496038 97.1216804,281.496038 C120.551648,281.496038 131.672876,267.394388 137.829235,243.562042 L163.04743,142.864958 Z" id="Fill-4" fill="#FEFEFE" sketch:type="MSShapeGroup"></path>
                    <path d="M206.33429,184.97056 C199.384268,200.462878 195.413964,218.33863 195.413964,235.617528 C195.413964,269.381511 214.873627,281.893542 237.114095,281.893542 C262.730116,281.893542 282.784529,264.415693 294.502497,239.787542 C301.452518,224.297214 305.422823,206.421462 305.422823,189.140574 C305.422823,155.376591 285.764247,142.86456 263.722692,142.86456 C237.907758,142.86456 217.851355,160.342409 206.33429,184.97056 M319.322866,198.873259 C319.322866,241.773074 283.182355,283.879074 237.114095,283.879074 C208.319442,283.879074 181.315008,263.422927 181.315008,225.884843 C181.315008,182.786077 217.652442,140.879028 263.722692,140.879028 C292.515355,140.879028 319.322866,161.138214 319.322866,198.873259" id="Fill-6" fill="#FEFEFE" sketch:type="MSShapeGroup"></path>
                    <path d="M472.617192,142.864958 L451.568214,226.679056 C442.829964,262.627521 418.606334,283.879472 385.642464,283.879472 C347.514812,283.879472 329.445551,258.059605 337.587062,225.68629 L358.437127,142.864958 L372.536084,142.864958 L352.282758,223.501807 C344.139258,256.471975 357.245638,279.311556 389.018018,279.311556 C419.994747,279.311556 441.043725,259.450272 449.583062,225.885241 L470.433127,142.864958 L472.617192,142.864958 Z" id="Fill-8" fill="#FEFEFE" sketch:type="MSShapeGroup"></path>
                    <path d="M518.482562,283.879472 L491.080301,142.864958 L504.980345,142.864958 L528.609225,266.600573 L613.60079,142.864958 L616.180692,142.864958 L519.278214,283.879472 L518.482562,283.879472 Z" id="Fill-10" fill="#FEFEFE" sketch:type="MSShapeGroup"></path>
                    <path d="M722.215268,99.7665899 L685.478018,132.537807 L684.684355,132.537807 L707.917399,99.7665899 L722.215268,99.7665899 Z M637.623518,142.865356 L730.555692,142.865356 L729.958953,145.049838 L651.125736,145.049838 L635.238551,209.400555 L694.216268,209.400555 L693.619529,211.585037 L634.643801,211.585037 L617.567116,279.707866 L698.783312,279.707866 L698.188562,281.894338 L602.871421,281.894338 L637.623518,142.865356 Z" id="Fill-12" fill="#FEFEFE" sketch:type="MSShapeGroup"></path>
                    <path d="M126.094957,333.886813 C126.094957,303.300078 109.018272,287.610799 72.4799348,287.610799 L48.2543152,287.610799 L14.6956957,422.268827 L43.0905326,422.268827 C99.6852717,422.268827 126.094957,378.97111 126.094957,333.886813 L126.094957,333.886813 Z M0,424.453309 L34.7520978,285.424327 L73.6714239,285.424327 C116.96087,285.424327 140.591739,305.882463 140.591739,337.660914 C140.591739,386.716274 100.280022,424.453309 43.6872717,424.453309 L0,424.453309 Z" id="Fill-14" fill="#FEFEFE" sketch:type="MSShapeGroup"></path>
                    <path d="M161.436434,424.454105 L147.337477,424.454105 L182.087586,285.425122 L196.186542,285.425122 L161.436434,424.454105 Z" id="Fill-16" fill="#FEFEFE" sketch:type="MSShapeGroup"></path>
                    <path d="M232.125952,285.425122 L321.286735,285.425122 L320.689996,287.609605 L245.630159,287.609605 L229.148224,353.945853 L288.322865,353.945853 L287.726126,356.130336 L228.551485,356.130336 L211.4748,424.454105 L197.375843,424.454105 L232.125952,285.425122 Z" id="Fill-18" fill="#FEFEFE" sketch:type="MSShapeGroup"></path>
                    <path d="M343.124801,285.425122 L432.285584,285.425122 L431.688845,287.609605 L356.629008,287.609605 L340.147073,353.945853 L399.321714,353.945853 L398.724975,356.130336 L339.550334,356.130336 L322.473649,424.454105 L308.374692,424.454105 L343.124801,285.425122 Z" id="Fill-20" fill="#FEFEFE" sketch:type="MSShapeGroup"></path>
                    <path d="M455.315736,285.425122 L548.24791,285.425122 L547.65316,287.609605 L468.817953,287.609605 L452.932758,351.960322 L511.908486,351.960322 L511.313736,354.144804 L452.338008,354.144804 L435.259334,422.269622 L516.475529,422.269622 L515.880779,424.454105 L420.565627,424.454105 L455.315736,285.425122 Z" id="Fill-22" fill="#FEFEFE" sketch:type="MSShapeGroup"></path>
                    <path d="M571.478168,358.31641 L608.611255,358.31641 C635.02094,358.31641 658.65181,346.200291 658.65181,313.429074 C658.65181,294.958459 646.935832,287.611197 626.284679,287.611197 L588.952679,287.611197 L571.478168,358.31641 Z M554.797321,424.453707 L540.698364,424.453707 L575.448473,285.424724 L627.277255,285.424724 C654.084766,285.424724 673.347505,293.766742 673.347505,315.416595 C673.347505,348.187812 639.788886,359.110224 620.72506,359.508127 L620.72506,359.904039 C638.199571,361.294707 646.341082,368.84291 648.127321,382.94456 L651.107038,406.182043 C651.900701,412.73549 653.688929,419.885791 657.460321,424.453707 L641.774038,424.453707 C639.39106,419.288938 638.398484,412.536539 637.801745,407.174808 L635.02094,384.930092 C633.234701,368.248046 626.483592,360.500892 605.036788,360.500892 L570.881429,360.500892 L554.797321,424.453707 Z" id="Fill-24" fill="#FEFEFE" sketch:type="MSShapeGroup"></path>
                    <path d="M675.331066,368.247051 L724.776871,368.247051 L724.180132,370.829436 L674.734327,370.829436 L675.331066,368.247051 Z" id="Fill-26" fill="#FEFEFE" sketch:type="MSShapeGroup"></path>
                    <path d="M135.728514,427.985486 L228.660688,427.985486 L228.065938,430.169969 L149.230732,430.169969 L133.345536,494.520685 L192.321264,494.520685 L191.726514,496.705168 L132.750786,496.705168 L115.672112,564.829986 L196.888308,564.829986 L196.293558,567.014469 L100.978405,567.014469 L135.728514,427.985486 Z" id="Fill-28" fill="#FEFEFE" sketch:type="MSShapeGroup"></path>
                    <path d="M366.070813,427.985486 L368.453791,427.985486 L333.305857,569 L332.512193,569 L253.8759,445.065434 L223.493922,567.014469 L221.112933,567.014469 L256.258878,425.999955 L257.052541,425.999955 L335.887748,549.536619 L366.070813,427.985486 Z" id="Fill-30" fill="#FEFEFE" sketch:type="MSShapeGroup"></path>
                    <g id="Group-34">
                        <mask id="mask-2" sketch:name="Clip 33" fill="white">
                            <use xlink:href="#path-1"></use>
                        </mask>
                        <g id="Clip-33"></g>
                        <path d="M501.694301,463.934747 L499.510236,464.52961 C498.913497,441.69003 482.232649,428.382194 459.001595,428.382194 C419.286616,428.382194 390.293051,470.886097 390.293051,518.552778 C390.293051,553.309527 410.548366,566.617362 432.987747,566.617362 C454.631475,566.617362 474.88679,555.891911 487.396432,533.052331 L489.182671,534.045097 C475.879366,558.474296 453.638899,569.000796 431.597345,569.000796 C402.406855,569.000796 375.997171,548.74161 375.997171,511.203527 C375.997171,466.119229 413.923921,426.00075 457.611192,426.00075 C482.431562,426.00075 500.502812,439.704499 501.694301,463.934747" id="Fill-32" fill="#FEFEFE" sketch:type="MSShapeGroup" mask="url(#mask-2)"></path>
                    </g>
                    <path d="M539.816583,427.985486 L632.748757,427.985486 L632.154007,430.169969 L553.3188,430.169969 L537.433604,494.520685 L596.409333,494.520685 L595.814583,496.705168 L536.838854,496.705168 L519.76018,564.829986 L600.976376,564.829986 L600.381626,567.014469 L505.066474,567.014469 L539.816583,427.985486 Z" id="Fill-35" fill="#FEFEFE" sketch:type="MSShapeGroup"></path>
                </g>
            </g>
        </g>
    </g>
</svg>