<?xml version="1.0" encoding="UTF-8" standalone="no"?>
<svg width="531px" height="429px" viewBox="0 0 531 429" version="1.1" xmlns="http://www.w3.org/2000/svg" xmlns:xlink="http://www.w3.org/1999/xlink" xmlns:sketch="http://www.bohemiancoding.com/sketch/ns">
    <!-- Generator: Sketch 3.4 (15588) - http://www.bohemiancoding.com/sketch -->
    <title>true_you</title>
    <desc>Created with Sketch.</desc>
    <defs>
        <path id="path-1" d="M0,1.628 L530.6026,1.628 L530.6026,430 L0,430"></path>
    </defs>
    <g id="Page-1" stroke="none" stroke-width="1" fill="none" fill-rule="evenodd" sketch:type="MSPage">
        <g id="page-1" sketch:type="MSArtboardGroup" transform="translate(-253.000000, -98.000000)">
            <g id="true_you" sketch:type="MSLayerGroup" transform="translate(253.000000, 97.000000)">
                <path d="M65.6272951,1.6288 L65.2296484,3.8248 L122.876434,3.8248 L88.5649168,141.3808 L102.728334,141.3808 L137.037852,3.8248 L194.882462,3.8248 L195.479931,1.6288 L65.6272951,1.6288 Z" id="Fill-1" fill="#FEFEFE" sketch:type="MSShapeGroup"></path>
                <path d="M324.741092,1.6288 L307.987976,68.5088 L214.834736,68.5088 L231.392026,1.6288 L217.226611,1.6288 L182.321621,141.3808 L196.485038,141.3808 L214.237266,70.7048 L307.388509,70.7048 L289.836103,141.3808 L303.995523,141.3808 L338.904509,1.6288 L324.741092,1.6288 Z" id="Fill-2" fill="#FEFEFE" sketch:type="MSShapeGroup"></path>
                <path d="M376.008145,1.6288 L341.103156,141.3808 L436.848094,141.3808 L437.447561,139.1848 L355.862043,139.1848 L373.016803,70.7048 L432.26017,70.7048 L432.859637,68.5088 L373.61627,68.5088 L389.574093,3.8248 L468.761741,3.8248 L469.361208,1.6288 L376.008145,1.6288 Z" id="Fill-3" fill="#FEFEFE" sketch:type="MSShapeGroup"></path>
                <path d="M0.397446898,144.9412 L-0.000199822473,147.1372 L57.6465854,147.1372 L23.3370668,284.6932 L37.5004837,284.6932 L71.808004,147.1372 L129.654612,147.1372 L130.252081,144.9412 L0.397446898,144.9412 Z" id="Fill-4" fill="#FEFEFE" sketch:type="MSShapeGroup"></path>
                <g id="Group-18">
                    <path d="M148.011103,218.21 L185.311964,218.21 C211.840396,218.21 235.577307,206.032 235.577307,173.09 C235.577307,154.524 223.807764,147.136 203.062195,147.136 L165.563509,147.136 L148.011103,218.21 Z M131.255989,284.692 L117.092572,284.692 L151.99956,144.94 L204.059309,144.94 C230.989383,144.94 250.336195,153.326 250.336195,175.086 C250.336195,208.028 216.626144,219.008 197.477156,219.408 L197.477156,219.808 C215.031561,221.206 223.208296,228.792 225.0047,242.966 L227.998041,266.326 C228.795333,272.914 230.589738,280.1 234.380371,284.692 L218.620372,284.692 C216.228497,279.502 215.231383,272.714 214.631916,267.324 L211.840396,244.962 C210.043992,228.192 203.264015,220.406 181.721155,220.406 L147.411636,220.406 L131.255989,284.692 Z" id="Fill-5" fill="#FEFEFE" sketch:type="MSShapeGroup"></path>
                    <path d="M403.136843,144.9404 L381.993628,229.1904 C373.215426,265.3264 348.881046,286.6884 315.768464,286.6884 C277.470488,286.6884 259.318615,260.7344 267.497349,228.1924 L288.44274,144.9404 L302.604159,144.9404 L282.258235,225.9964 C274.079501,259.1384 287.245804,282.0964 319.161449,282.0964 C350.277805,282.0964 371.421021,262.1324 379.997401,228.3924 L400.940794,144.9404 L403.136843,144.9404 Z" id="Fill-7" fill="#FEFEFE" sketch:type="MSShapeGroup"></path>
                    <path d="M437.249137,144.9404 L530.6022,144.9404 L530.002733,147.1364 L450.813087,147.1364 L434.857262,211.8204 L494.098631,211.8204 L493.499163,214.0184 L434.257795,214.0184 L417.103036,282.4964 L498.686555,282.4964 L498.087087,284.6924 L402.342149,284.6924 L437.249137,144.9404 Z" id="Fill-9" fill="#FEFEFE" sketch:type="MSShapeGroup"></path>
                    <path d="M180.62273,288.252 L183.214428,288.252 L111.006579,369.108 L96.245693,428.004 L81.8844519,428.004 L96.6453379,369.308 L64.3320458,288.252 L78.8931094,288.252 L109.809642,367.312 L180.62273,288.252 Z" id="Fill-11" fill="#FEFEFE" sketch:type="MSShapeGroup"></path>
                    <g id="Group-15">
                        <mask id="mask-2" sketch:name="Clip 14" fill="white">
                            <use xlink:href="#path-1"></use>
                        </mask>
                        <g id="Clip-14"></g>
                        <path d="M196.186103,330.5762 C189.204306,346.1502 185.21585,364.1182 185.21585,381.4862 C185.21585,415.4262 204.762484,428.0042 227.104635,428.0042 C252.835775,428.0042 272.981876,410.4362 284.749422,385.6802 C291.731219,370.1062 295.721674,352.1382 295.721674,334.7702 C295.721674,300.8282 275.975217,288.2522 253.832889,288.2522 C227.901926,288.2522 207.755825,305.8202 196.186103,330.5762 M309.685268,344.5522 C309.685268,387.6762 273.381521,430.0002 227.104635,430.0002 C198.180332,430.0002 171.052433,409.4382 171.052433,371.7042 C171.052433,328.3802 207.556002,286.2542 253.832889,286.2542 C282.755193,286.2542 309.685268,306.6182 309.685268,344.5522" id="Fill-13" fill="#FEFEFE" sketch:type="MSShapeGroup" mask="url(#mask-2)"></path>
                    </g>
                    <path d="M463.678856,288.252 L442.535641,372.502 C433.757439,408.638 409.423059,430 376.310477,430 C338.012501,430 319.860628,404.046 328.039362,371.504 L348.984753,288.252 L363.146172,288.252 L342.800248,369.308 C334.621514,402.45 347.787817,425.408 379.703462,425.408 C410.819818,425.408 431.963034,405.444 440.539414,371.704 L461.482807,288.252 L463.678856,288.252 Z" id="Fill-16" fill="#FEFEFE" sketch:type="MSShapeGroup"></path>
                </g>
            </g>
        </g>
    </g>
</svg>